# xmcd
#
# Track frame offsets:
#	150
#	15470
#	29786
#	44399
#	58095
#	75384
#	91296
#	107122
#	124456
#	139494
#	154212
#	172243
#
# Disc length: 2527 seconds
# Revision: 0
# Processed by: cddbd v1.5.2PL0 Copyright (c) Steve Scherf et al.
# Submitted via: dBpowerAMP V12.0
#
DISCID=aa09dd0c
DTITLE=Various Artist - Perfectly Damaged
DYEAR=2015
DGENRE=Pop
TTITLE0=Måns Zelmerlöw - Stir It Up
TTITLE1=Måns Zelmerlöw - Heroes
TTITLE2=Måns Zelmerlöw - Someday (You and I)
TTITLE3=Måns Zelmerlöw - Live While We're Alive
TTITLE4=Måns Zelmerlöw - Let It Burn
TTITLE5=Måns Zelmerlöw - Should've Gone Home
TTITLE6=Måns Zelmerlöw - Fade Away
TTITLE7=Måns Zelmerlöw - Hearts Collide
TTITLE8=Måns Zelmerlöw - The Core Of You
TTITLE9=Måns Zelmerlöw - Unbreakable
TTITLE10=Måns Zelmerlöw - Kingdom In The Sky
TTITLE11=Måns Zelmerlöw feat. Tilde Vinther - What's In Your Eyes
EXTD=
EXTT0=
EXTT1=
EXTT2=
EXTT3=
EXTT4=
EXTT5=
EXTT6=
EXTT7=
EXTT8=
EXTT9=
EXTT10=
EXTT11=
PLAYORDER=
